<mxfile host="app.diagrams.net" modified="2020-04-30T18:14:21.568Z" agent="5.0 (Macintosh; Intel Mac OS X 10_15_1) AppleWebKit/537.36 (KHTML, like Gecko) Chrome/81.0.4044.122 Safari/537.36" etag="xwgVxtZJ1nxxqGwzOcyU" version="13.0.4" type="github" pages="2">
  <diagram id="_OgnPNasMEZivwnT4MXi" name="01 - expiration">
    <mxGraphModel dx="910" dy="448" grid="1" gridSize="10" guides="1" tooltips="1" connect="1" arrows="1" fold="1" page="1" pageScale="1" pageWidth="1920" pageHeight="1200" math="0" shadow="0">
      <root>
        <mxCell id="0" />
        <mxCell id="1" parent="0" />
        <mxCell id="RuMmO5bfMK2gbvoes_O5-1" value="Tickets Service" style="rounded=0;whiteSpace=wrap;html=1;fontSize=19;fillColor=#f5f5f5;strokeColor=#666666;fontColor=#333333;fontStyle=1" vertex="1" parent="1">
          <mxGeometry x="700" y="180" width="180" height="25" as="geometry" />
        </mxCell>
        <mxCell id="RuMmO5bfMK2gbvoes_O5-2" value="" style="rounded=0;whiteSpace=wrap;html=1;fontSize=22;fillColor=#f5f5f5;strokeColor=#666666;fontColor=#333333;fontStyle=1" vertex="1" parent="1">
          <mxGeometry x="700" y="205" width="180" height="130" as="geometry" />
        </mxCell>
        <mxCell id="RuMmO5bfMK2gbvoes_O5-3" value="Orders Service" style="rounded=0;whiteSpace=wrap;html=1;fontSize=19;fillColor=#f5f5f5;strokeColor=#666666;fontColor=#333333;fontStyle=1" vertex="1" parent="1">
          <mxGeometry x="910" y="180" width="180" height="25" as="geometry" />
        </mxCell>
        <mxCell id="RuMmO5bfMK2gbvoes_O5-4" style="edgeStyle=orthogonalEdgeStyle;rounded=0;orthogonalLoop=1;jettySize=auto;html=1;exitX=0.5;exitY=1;exitDx=0;exitDy=0;fontSize=17;" edge="1" parent="1" source="RuMmO5bfMK2gbvoes_O5-5" target="RuMmO5bfMK2gbvoes_O5-18">
          <mxGeometry relative="1" as="geometry" />
        </mxCell>
        <mxCell id="RuMmO5bfMK2gbvoes_O5-5" value="" style="rounded=0;whiteSpace=wrap;html=1;fontSize=22;fillColor=#f5f5f5;strokeColor=#666666;fontColor=#333333;fontStyle=1" vertex="1" parent="1">
          <mxGeometry x="910" y="205" width="180" height="130" as="geometry" />
        </mxCell>
        <mxCell id="RuMmO5bfMK2gbvoes_O5-6" value="Expiration Service" style="rounded=0;whiteSpace=wrap;html=1;fontSize=19;fillColor=#f5f5f5;strokeColor=#666666;fontColor=#333333;fontStyle=1" vertex="1" parent="1">
          <mxGeometry x="1340" y="180" width="180" height="25" as="geometry" />
        </mxCell>
        <mxCell id="RuMmO5bfMK2gbvoes_O5-7" value="" style="rounded=0;whiteSpace=wrap;html=1;fontSize=22;fillColor=#f5f5f5;strokeColor=#666666;fontColor=#333333;fontStyle=1" vertex="1" parent="1">
          <mxGeometry x="1340" y="205" width="180" height="130" as="geometry" />
        </mxCell>
        <mxCell id="RuMmO5bfMK2gbvoes_O5-8" value="Payments Service" style="rounded=0;whiteSpace=wrap;html=1;fontSize=19;fillColor=#f5f5f5;strokeColor=#666666;fontColor=#333333;fontStyle=1" vertex="1" parent="1">
          <mxGeometry x="1130" y="180" width="180" height="25" as="geometry" />
        </mxCell>
        <mxCell id="RuMmO5bfMK2gbvoes_O5-9" value="" style="rounded=0;whiteSpace=wrap;html=1;fontSize=22;fillColor=#f5f5f5;strokeColor=#666666;fontColor=#333333;fontStyle=1" vertex="1" parent="1">
          <mxGeometry x="1130" y="205" width="180" height="130" as="geometry" />
        </mxCell>
        <mxCell id="RuMmO5bfMK2gbvoes_O5-10" value="tickets" style="rounded=0;whiteSpace=wrap;html=1;fontSize=19;fillColor=#d5e8d4;strokeColor=#82b366;" vertex="1" parent="1">
          <mxGeometry x="730" y="220" width="120" height="40" as="geometry" />
        </mxCell>
        <mxCell id="RuMmO5bfMK2gbvoes_O5-11" value="orders" style="rounded=0;whiteSpace=wrap;html=1;fontSize=19;fillColor=#d5e8d4;strokeColor=#82b366;" vertex="1" parent="1">
          <mxGeometry x="940" y="220" width="120" height="40" as="geometry" />
        </mxCell>
        <mxCell id="RuMmO5bfMK2gbvoes_O5-12" value="tickets" style="rounded=0;whiteSpace=wrap;html=1;fontSize=19;fillColor=#e1d5e7;strokeColor=#9673a6;" vertex="1" parent="1">
          <mxGeometry x="940" y="270" width="120" height="40" as="geometry" />
        </mxCell>
        <mxCell id="RuMmO5bfMK2gbvoes_O5-13" value="charges" style="rounded=0;whiteSpace=wrap;html=1;fontSize=19;fillColor=#d5e8d4;strokeColor=#82b366;" vertex="1" parent="1">
          <mxGeometry x="1160" y="220" width="120" height="40" as="geometry" />
        </mxCell>
        <mxCell id="RuMmO5bfMK2gbvoes_O5-14" value="orders" style="rounded=0;whiteSpace=wrap;html=1;fontSize=19;fillColor=#e1d5e7;strokeColor=#9673a6;" vertex="1" parent="1">
          <mxGeometry x="1160" y="270" width="120" height="40" as="geometry" />
        </mxCell>
        <mxCell id="RuMmO5bfMK2gbvoes_O5-15" style="edgeStyle=orthogonalEdgeStyle;rounded=0;orthogonalLoop=1;jettySize=auto;html=1;exitX=0;exitY=0.5;exitDx=0;exitDy=0;entryX=0.5;entryY=1;entryDx=0;entryDy=0;fontSize=14;" edge="1" parent="1" source="RuMmO5bfMK2gbvoes_O5-18" target="RuMmO5bfMK2gbvoes_O5-2">
          <mxGeometry relative="1" as="geometry" />
        </mxCell>
        <mxCell id="RuMmO5bfMK2gbvoes_O5-16" style="edgeStyle=orthogonalEdgeStyle;rounded=0;orthogonalLoop=1;jettySize=auto;html=1;exitX=1;exitY=0.5;exitDx=0;exitDy=0;entryX=0.5;entryY=1;entryDx=0;entryDy=0;fontSize=14;" edge="1" parent="1" source="RuMmO5bfMK2gbvoes_O5-18" target="RuMmO5bfMK2gbvoes_O5-9">
          <mxGeometry relative="1" as="geometry" />
        </mxCell>
        <mxCell id="RuMmO5bfMK2gbvoes_O5-17" style="edgeStyle=orthogonalEdgeStyle;rounded=0;orthogonalLoop=1;jettySize=auto;html=1;exitX=0.75;exitY=1;exitDx=0;exitDy=0;fontSize=14;" edge="1" parent="1" source="RuMmO5bfMK2gbvoes_O5-18" target="RuMmO5bfMK2gbvoes_O5-7">
          <mxGeometry relative="1" as="geometry">
            <Array as="points">
              <mxPoint x="1037" y="480" />
              <mxPoint x="1430" y="480" />
            </Array>
          </mxGeometry>
        </mxCell>
        <mxCell id="RuMmO5bfMK2gbvoes_O5-18" value="order:created" style="rounded=0;whiteSpace=wrap;html=1;fontSize=17;fillColor=#f8cecc;strokeColor=#b85450;" vertex="1" parent="1">
          <mxGeometry x="925" y="360" width="150" height="40" as="geometry" />
        </mxCell>
        <mxCell id="RuMmO5bfMK2gbvoes_O5-19" value="Events Published by Each Service" style="text;html=1;strokeColor=none;fillColor=none;align=center;verticalAlign=middle;whiteSpace=wrap;rounded=0;fontSize=20;fontStyle=1" vertex="1" parent="1">
          <mxGeometry x="925" y="140" width="360" height="20" as="geometry" />
        </mxCell>
        <mxCell id="RuMmO5bfMK2gbvoes_O5-20" value="Tickets service needs to be told that one of its tickets has been reserved, and no further edits to that ticket should be allowed" style="rounded=0;whiteSpace=wrap;html=1;fontSize=14;" vertex="1" parent="1">
          <mxGeometry x="620" y="380" width="280" height="60" as="geometry" />
        </mxCell>
        <mxCell id="RuMmO5bfMK2gbvoes_O5-21" value="Payments service needs to know there is a new order that a user might submit a payment for" style="rounded=0;whiteSpace=wrap;html=1;fontSize=14;" vertex="1" parent="1">
          <mxGeometry x="1100" y="380" width="200" height="70" as="geometry" />
        </mxCell>
        <mxCell id="RuMmO5bfMK2gbvoes_O5-22" value="Expiration service needs to start a 15 minute timer to eventually time out this order" style="rounded=0;whiteSpace=wrap;html=1;fontSize=14;" vertex="1" parent="1">
          <mxGeometry x="1080" y="480" width="200" height="50" as="geometry" />
        </mxCell>
      </root>
    </mxGraphModel>
  </diagram>
  <diagram id="qXr48oONkGDnF2FFql-H" name="02 - pub">
    <mxGraphModel dx="834" dy="411" grid="1" gridSize="10" guides="1" tooltips="1" connect="1" arrows="1" fold="1" page="1" pageScale="1" pageWidth="1920" pageHeight="1200" math="0" shadow="0">
      <root>
        <mxCell id="9hqFs7T4M4Q6HMDStqqL-0" />
        <mxCell id="9hqFs7T4M4Q6HMDStqqL-1" parent="9hqFs7T4M4Q6HMDStqqL-0" />
        <mxCell id="9hqFs7T4M4Q6HMDStqqL-2" value="Tickets Service" style="rounded=0;whiteSpace=wrap;html=1;fontSize=19;fillColor=#f5f5f5;strokeColor=#666666;fontColor=#333333;fontStyle=1" vertex="1" parent="9hqFs7T4M4Q6HMDStqqL-1">
          <mxGeometry x="700" y="180" width="180" height="25" as="geometry" />
        </mxCell>
        <mxCell id="9hqFs7T4M4Q6HMDStqqL-3" value="" style="rounded=0;whiteSpace=wrap;html=1;fontSize=22;fillColor=#f5f5f5;strokeColor=#666666;fontColor=#333333;fontStyle=1" vertex="1" parent="9hqFs7T4M4Q6HMDStqqL-1">
          <mxGeometry x="700" y="205" width="180" height="130" as="geometry" />
        </mxCell>
        <mxCell id="9hqFs7T4M4Q6HMDStqqL-4" value="Orders Service" style="rounded=0;whiteSpace=wrap;html=1;fontSize=19;fillColor=#f5f5f5;strokeColor=#666666;fontColor=#333333;fontStyle=1" vertex="1" parent="9hqFs7T4M4Q6HMDStqqL-1">
          <mxGeometry x="910" y="180" width="180" height="25" as="geometry" />
        </mxCell>
        <mxCell id="9hqFs7T4M4Q6HMDStqqL-5" value="" style="rounded=0;whiteSpace=wrap;html=1;fontSize=22;fillColor=#f5f5f5;strokeColor=#666666;fontColor=#333333;fontStyle=1" vertex="1" parent="9hqFs7T4M4Q6HMDStqqL-1">
          <mxGeometry x="910" y="205" width="180" height="130" as="geometry" />
        </mxCell>
        <mxCell id="9hqFs7T4M4Q6HMDStqqL-6" value="Expiration Service" style="rounded=0;whiteSpace=wrap;html=1;fontSize=19;fillColor=#f5f5f5;strokeColor=#666666;fontColor=#333333;fontStyle=1" vertex="1" parent="9hqFs7T4M4Q6HMDStqqL-1">
          <mxGeometry x="1340" y="180" width="180" height="25" as="geometry" />
        </mxCell>
        <mxCell id="9hqFs7T4M4Q6HMDStqqL-7" style="edgeStyle=orthogonalEdgeStyle;rounded=0;orthogonalLoop=1;jettySize=auto;html=1;exitX=0.5;exitY=1;exitDx=0;exitDy=0;entryX=0.5;entryY=0;entryDx=0;entryDy=0;fontSize=14;" edge="1" parent="9hqFs7T4M4Q6HMDStqqL-1" source="9hqFs7T4M4Q6HMDStqqL-8" target="9hqFs7T4M4Q6HMDStqqL-18">
          <mxGeometry relative="1" as="geometry" />
        </mxCell>
        <mxCell id="9hqFs7T4M4Q6HMDStqqL-8" value="" style="rounded=0;whiteSpace=wrap;html=1;fontSize=22;fillColor=#f5f5f5;strokeColor=#666666;fontColor=#333333;fontStyle=1" vertex="1" parent="9hqFs7T4M4Q6HMDStqqL-1">
          <mxGeometry x="1340" y="205" width="180" height="130" as="geometry" />
        </mxCell>
        <mxCell id="9hqFs7T4M4Q6HMDStqqL-9" value="Payments Service" style="rounded=0;whiteSpace=wrap;html=1;fontSize=19;fillColor=#f5f5f5;strokeColor=#666666;fontColor=#333333;fontStyle=1" vertex="1" parent="9hqFs7T4M4Q6HMDStqqL-1">
          <mxGeometry x="1130" y="180" width="180" height="25" as="geometry" />
        </mxCell>
        <mxCell id="9hqFs7T4M4Q6HMDStqqL-10" value="" style="rounded=0;whiteSpace=wrap;html=1;fontSize=22;fillColor=#f5f5f5;strokeColor=#666666;fontColor=#333333;fontStyle=1" vertex="1" parent="9hqFs7T4M4Q6HMDStqqL-1">
          <mxGeometry x="1130" y="205" width="180" height="130" as="geometry" />
        </mxCell>
        <mxCell id="9hqFs7T4M4Q6HMDStqqL-11" value="tickets" style="rounded=0;whiteSpace=wrap;html=1;fontSize=19;fillColor=#d5e8d4;strokeColor=#82b366;" vertex="1" parent="9hqFs7T4M4Q6HMDStqqL-1">
          <mxGeometry x="730" y="220" width="120" height="40" as="geometry" />
        </mxCell>
        <mxCell id="9hqFs7T4M4Q6HMDStqqL-12" value="orders" style="rounded=0;whiteSpace=wrap;html=1;fontSize=19;fillColor=#d5e8d4;strokeColor=#82b366;" vertex="1" parent="9hqFs7T4M4Q6HMDStqqL-1">
          <mxGeometry x="940" y="220" width="120" height="40" as="geometry" />
        </mxCell>
        <mxCell id="9hqFs7T4M4Q6HMDStqqL-13" value="tickets" style="rounded=0;whiteSpace=wrap;html=1;fontSize=19;fillColor=#e1d5e7;strokeColor=#9673a6;" vertex="1" parent="9hqFs7T4M4Q6HMDStqqL-1">
          <mxGeometry x="940" y="270" width="120" height="40" as="geometry" />
        </mxCell>
        <mxCell id="9hqFs7T4M4Q6HMDStqqL-14" value="charges" style="rounded=0;whiteSpace=wrap;html=1;fontSize=19;fillColor=#d5e8d4;strokeColor=#82b366;" vertex="1" parent="9hqFs7T4M4Q6HMDStqqL-1">
          <mxGeometry x="1160" y="220" width="120" height="40" as="geometry" />
        </mxCell>
        <mxCell id="9hqFs7T4M4Q6HMDStqqL-15" value="orders" style="rounded=0;whiteSpace=wrap;html=1;fontSize=19;fillColor=#e1d5e7;strokeColor=#9673a6;" vertex="1" parent="9hqFs7T4M4Q6HMDStqqL-1">
          <mxGeometry x="1160" y="270" width="120" height="40" as="geometry" />
        </mxCell>
        <mxCell id="9hqFs7T4M4Q6HMDStqqL-16" value="Events Published by Each Service" style="text;html=1;strokeColor=none;fillColor=none;align=center;verticalAlign=middle;whiteSpace=wrap;rounded=0;fontSize=20;fontStyle=1" vertex="1" parent="9hqFs7T4M4Q6HMDStqqL-1">
          <mxGeometry x="925" y="140" width="360" height="20" as="geometry" />
        </mxCell>
        <mxCell id="9hqFs7T4M4Q6HMDStqqL-17" style="edgeStyle=orthogonalEdgeStyle;rounded=0;orthogonalLoop=1;jettySize=auto;html=1;exitX=0;exitY=0.5;exitDx=0;exitDy=0;fontSize=14;" edge="1" parent="9hqFs7T4M4Q6HMDStqqL-1" source="9hqFs7T4M4Q6HMDStqqL-18" target="9hqFs7T4M4Q6HMDStqqL-5">
          <mxGeometry relative="1" as="geometry" />
        </mxCell>
        <mxCell id="9hqFs7T4M4Q6HMDStqqL-18" value="expiration:complete" style="rounded=0;whiteSpace=wrap;html=1;fontSize=15;fillColor=#f8cecc;strokeColor=#b85450;" vertex="1" parent="9hqFs7T4M4Q6HMDStqqL-1">
          <mxGeometry x="1355" y="360" width="150" height="40" as="geometry" />
        </mxCell>
        <mxCell id="9hqFs7T4M4Q6HMDStqqL-19" value="Orders service needs to know that an order has gone over the 15 minute time limit.&amp;nbsp; It is up to the orders service to decide whether or not to cancel the order (it might have already been paid!!!)" style="rounded=0;whiteSpace=wrap;html=1;fontSize=14;" vertex="1" parent="9hqFs7T4M4Q6HMDStqqL-1">
          <mxGeometry x="1020" y="380" width="290" height="90" as="geometry" />
        </mxCell>
      </root>
    </mxGraphModel>
  </diagram>
</mxfile>
